<svg width="181" height="96" viewBox="0 0 181 96" fill="none" xmlns="http://www.w3.org/2000/svg">
<g filter="url(#filter0_g_6562_7227)">
<path d="M44.8008 46.6758C44.8008 51.1341 44.4049 55.5299 43.6133 59.8633C42.8216 64.1549 41.5091 68.1758 39.6758 71.9258C37.8841 75.6758 35.5091 79.0924 32.5508 82.1758C29.5924 85.2174 25.9674 87.7174 21.6758 89.6758C20.5924 90.1758 19.4049 90.6341 18.1133 91.0508C16.8633 91.4674 15.5508 91.8216 14.1758 92.1133C12.8424 92.4049 11.5091 92.6341 10.1758 92.8008C8.84245 92.9674 7.59245 93.0508 6.42578 93.0508C5.96745 93.0508 5.44661 93.0299 4.86328 92.9883C4.32161 92.9883 3.80078 92.9049 3.30078 92.7383C2.80078 92.6133 2.38411 92.3841 2.05078 92.0508C1.71745 91.7174 1.55078 91.2591 1.55078 90.6758C1.55078 90.1758 1.65495 89.6549 1.86328 89.1133C2.07161 88.5716 2.34245 88.0508 2.67578 87.5508C3.05078 87.0508 3.44661 86.6133 3.86328 86.2383C4.27995 85.8216 4.71745 85.5091 5.17578 85.3008C4.96745 84.9674 4.75911 84.0299 4.55078 82.4883C4.38411 80.9466 4.21745 78.9883 4.05078 76.6133C3.92578 74.2383 3.80078 71.5924 3.67578 68.6758C3.55078 65.7174 3.42578 62.6758 3.30078 59.5508C3.21745 56.4258 3.13411 53.3216 3.05078 50.2383C3.00911 47.1133 2.96745 44.2383 2.92578 41.6133C2.88411 38.9883 2.84245 36.7174 2.80078 34.8008C2.80078 32.8424 2.80078 31.4258 2.80078 30.5508C2.80078 26.6341 2.86328 22.7799 2.98828 18.9883C3.11328 15.1966 3.17578 11.3424 3.17578 7.42578C2.71745 7.42578 2.27995 7.30078 1.86328 7.05078C1.48828 6.80078 1.30078 6.42578 1.30078 5.92578C1.30078 5.25911 1.46745 4.65495 1.80078 4.11328C2.13411 3.52995 2.55078 3.02995 3.05078 2.61328C3.59245 2.19661 4.17578 1.88411 4.80078 1.67578C5.46745 1.42578 6.09245 1.30078 6.67578 1.30078C7.25911 1.30078 7.82161 1.36328 8.36328 1.48828C8.90495 1.57161 9.46745 1.67578 10.0508 1.80078C15.5924 3.13411 20.5299 5.15495 24.8633 7.86328C29.1966 10.5716 32.8216 13.8633 35.7383 17.7383C38.6966 21.6133 40.9466 25.9883 42.4883 30.8633C44.0299 35.7383 44.8008 41.0091 44.8008 46.6758ZM35.5508 45.5508C35.5508 41.3841 35.0508 37.4674 34.0508 33.8008C33.0508 30.0924 31.5508 26.7174 29.5508 23.6758C27.5924 20.5924 25.1133 17.8841 22.1133 15.5508C19.1549 13.1758 15.7174 11.2174 11.8008 9.67578V9.92578C11.8008 20.6758 11.9674 31.3424 12.3008 41.9258C12.6758 52.4674 13.2174 63.0924 13.9258 73.8008C14.0508 75.4258 14.1549 77.0508 14.2383 78.6758C14.3633 80.2591 14.5508 81.8424 14.8008 83.4258C18.7174 82.1341 22.0091 80.1341 24.6758 77.4258C27.3424 74.7174 29.4674 71.6341 31.0508 68.1758C32.6758 64.6758 33.8216 60.9674 34.4883 57.0508C35.1966 53.0924 35.5508 49.2591 35.5508 45.5508ZM72.7383 79.9883C72.7383 81.2383 72.3841 82.5299 71.6758 83.8633C71.0091 85.1966 70.1341 86.4258 69.0508 87.5508C67.9674 88.6341 66.7174 89.5299 65.3008 90.2383C63.9258 90.9466 62.5508 91.3008 61.1758 91.3008C59.2174 91.3008 57.5299 90.9258 56.1133 90.1758C54.6966 89.3841 53.4674 88.3424 52.4258 87.0508C51.3841 85.7174 50.5299 84.2174 49.8633 82.5508C49.2383 80.8841 48.7383 79.1758 48.3633 77.4258C47.9883 75.6341 47.7174 73.8633 47.5508 72.1133C47.4258 70.3216 47.3633 68.6966 47.3633 67.2383C47.3633 65.9883 47.4258 64.5091 47.5508 62.8008C47.7174 61.0924 47.9674 59.3216 48.3008 57.4883C48.6758 55.6549 49.1758 53.8424 49.8008 52.0508C50.4258 50.2591 51.1966 48.6549 52.1133 47.2383C53.0716 45.8216 54.1966 44.6758 55.4883 43.8008C56.8216 42.9258 58.3424 42.4883 60.0508 42.4883C61.3841 42.4883 62.5716 42.7591 63.6133 43.3008C64.6966 43.8424 65.5924 44.5716 66.3008 45.4883C67.0508 46.3633 67.6133 47.3841 67.9883 48.5508C68.4049 49.7174 68.6133 50.9258 68.6133 52.1758C68.6133 53.8008 68.2383 55.5716 67.4883 57.4883C66.7383 59.4049 65.7591 61.2591 64.5508 63.0508C63.3841 64.8424 62.0508 66.4674 60.5508 67.9258C59.0924 69.3424 57.6341 70.4258 56.1758 71.1758C56.2591 71.9258 56.4258 73.0299 56.6758 74.4883C56.9258 75.9049 57.2591 77.3216 57.6758 78.7383C58.1341 80.1549 58.6549 81.3841 59.2383 82.4258C59.8633 83.4674 60.5924 83.9883 61.4258 83.9883C61.8424 83.9883 62.1966 83.8633 62.4883 83.6133C62.8216 83.3633 63.1133 83.0299 63.3633 82.6133C63.6133 82.1966 63.8216 81.7383 63.9883 81.2383C64.1966 80.7383 64.3841 80.2591 64.5508 79.8008L64.9258 78.9258C65.0091 78.8008 65.0508 78.7174 65.0508 78.6758C65.0924 78.6341 65.1341 78.5716 65.1758 78.4883C65.4674 77.9466 65.7383 77.4466 65.9883 76.9883C66.2799 76.5299 66.6758 76.1341 67.1758 75.8008H67.1133C67.2799 75.6341 67.4466 75.5508 67.6133 75.5508C67.8216 75.5091 68.0091 75.4883 68.1758 75.4883C68.6341 75.4883 69.1341 75.6341 69.6758 75.9258C70.2174 76.2174 70.7174 76.5924 71.1758 77.0508C71.6341 77.4674 72.0091 77.9466 72.3008 78.4883C72.5924 78.9883 72.7383 79.4883 72.7383 79.9883ZM60.3633 52.4258C60.3633 52.0091 60.3424 51.5716 60.3008 51.1133C60.2591 50.6549 60.1549 50.2591 59.9883 49.9258C59.4049 50.6341 58.8841 51.4883 58.4258 52.4883C58.0091 53.4466 57.6549 54.4674 57.3633 55.5508C57.0716 56.5924 56.8216 57.6549 56.6133 58.7383C56.4466 59.8216 56.3216 60.8216 56.2383 61.7383C57.3216 60.4466 58.2799 58.9883 59.1133 57.3633C59.9466 55.6966 60.3633 54.0508 60.3633 52.4258ZM101.676 84.4258C101.676 85.1758 101.363 85.8633 100.738 86.4883C100.113 87.1133 99.3008 87.6758 98.3008 88.1758C97.3424 88.6341 96.2383 89.0508 94.9883 89.4258C93.7799 89.8008 92.5924 90.1133 91.4258 90.3633C90.2591 90.5716 89.1758 90.7383 88.1758 90.8633C87.2174 90.9883 86.4674 91.0508 85.9258 91.0508C84.8841 91.0508 83.7799 90.9674 82.6133 90.8008C81.4466 90.6341 80.3008 90.3841 79.1758 90.0508C78.0508 89.6758 76.9883 89.2174 75.9883 88.6758C74.9883 88.0924 74.1341 87.4049 73.4258 86.6133V86.6758C73.0924 86.3424 72.7799 85.9466 72.4883 85.4883C72.1549 85.0299 71.9883 84.5091 71.9883 83.9258C71.9883 83.5508 72.1341 83.2174 72.4258 82.9258C72.7174 82.6341 73.0508 82.4258 73.4258 82.3008C73.8424 81.3008 74.2799 80.3008 74.7383 79.3008C75.1966 78.3008 75.6549 77.3216 76.1133 76.3633L77.0508 74.1758C79.2591 69.8424 81.3008 65.5508 83.1758 61.3008C85.0924 57.0508 86.9883 52.6549 88.8633 48.1133L86.3633 48.2383L83.3008 48.4258L81.2383 48.6758C80.6549 48.7591 80.0924 48.8216 79.5508 48.8633C79.0508 48.9049 78.5299 48.9258 77.9883 48.9258C76.4049 48.9258 75.6133 48.1549 75.6133 46.6133C75.6133 45.9049 75.6966 45.2799 75.8633 44.7383C76.0299 44.1549 76.3424 43.6341 76.8008 43.1758C77.0091 42.9258 77.5508 42.6966 78.4258 42.4883C79.3424 42.2383 80.4049 42.0299 81.6133 41.8633C82.8216 41.6549 84.1133 41.4674 85.4883 41.3008C86.9049 41.1341 88.2591 40.9883 89.5508 40.8633C90.8424 40.7383 91.9883 40.6549 92.9883 40.6133C94.0299 40.5299 94.7591 40.4883 95.1758 40.4883C95.9258 40.4883 96.6133 40.5924 97.2383 40.8008C97.9049 41.0091 98.2383 41.6341 98.2383 42.6758C98.2383 43.2591 98.0924 43.9049 97.8008 44.6133C97.5091 45.2799 97.1966 45.8841 96.8633 46.4258C96.9466 46.6341 96.9883 46.9466 96.9883 47.3633C96.9883 47.8216 96.8216 48.5924 96.4883 49.6758C96.1549 50.7591 95.6966 52.0716 95.1133 53.6133C94.5716 55.1549 93.9258 56.8633 93.1758 58.7383C92.4258 60.6133 91.6341 62.5299 90.8008 64.4883C90.0091 66.4466 89.1966 68.4049 88.3633 70.3633C87.5299 72.3216 86.7383 74.1549 85.9883 75.8633L82.4883 83.9883C83.1966 84.1549 84.0091 84.2383 84.9258 84.2383C86.8008 84.2383 88.5716 83.8841 90.2383 83.1758C91.9466 82.4674 93.4049 81.7591 94.6133 81.0508C95.3216 80.6758 95.9466 80.3633 96.4883 80.1133C97.0299 79.8216 97.4674 79.6758 97.8008 79.6758C98.3424 79.6758 98.8424 79.8424 99.3008 80.1758C99.8008 80.4674 100.217 80.8633 100.551 81.3633C100.926 81.8216 101.197 82.3216 101.363 82.8633C101.572 83.4049 101.676 83.9258 101.676 84.4258ZM131.488 65.8008C131.488 69.4258 131.176 73.0508 130.551 76.6758C129.967 80.2591 128.738 83.6549 126.863 86.8633C126.28 87.8216 125.613 88.7591 124.863 89.6758C124.113 90.5508 123.28 91.3424 122.363 92.0508C121.488 92.8008 120.509 93.3841 119.426 93.8008C118.384 94.2591 117.28 94.4883 116.113 94.4883C114.28 94.4883 112.676 94.0508 111.301 93.1758C109.967 92.3424 108.801 91.2383 107.801 89.8633C106.842 88.4466 106.03 86.8633 105.363 85.1133C104.738 83.3216 104.238 81.5091 103.863 79.6758C103.53 77.8008 103.28 75.9883 103.113 74.2383C102.988 72.4883 102.926 70.9466 102.926 69.6133C102.926 68.1133 102.988 66.4674 103.113 64.6758C103.238 62.8841 103.447 61.0508 103.738 59.1758C104.072 57.3008 104.488 55.4466 104.988 53.6133C105.53 51.7799 106.217 50.0716 107.051 48.4883C107.884 46.8633 108.884 45.4258 110.051 44.1758C111.217 42.8841 112.572 41.8633 114.113 41.1133V41.1758C115.447 40.4674 116.78 40.1133 118.113 40.1133C118.947 40.1133 119.592 40.3008 120.051 40.6758C120.509 41.0091 120.717 41.5924 120.676 42.4258C122.967 42.8424 124.822 43.9466 126.238 45.7383C127.655 47.5299 128.738 49.6133 129.488 51.9883C130.28 54.3633 130.801 56.8008 131.051 59.3008C131.342 61.8008 131.488 63.9674 131.488 65.8008ZM117.363 50.1758C116.655 50.1758 115.988 49.9049 115.363 49.3633C114.572 50.5716 113.905 51.9674 113.363 53.5508C112.822 55.0924 112.384 56.6966 112.051 58.3633C111.759 59.9883 111.551 61.6341 111.426 63.3008C111.301 64.9674 111.238 66.5299 111.238 67.9883C111.238 69.1966 111.301 70.7591 111.426 72.6758C111.551 74.5508 111.78 76.4466 112.113 78.3633C112.488 80.2799 112.988 82.0716 113.613 83.7383C114.28 85.4049 115.134 86.6341 116.176 87.4258C117.467 86.6758 118.53 85.4883 119.363 83.8633C120.238 82.1966 120.926 80.3841 121.426 78.4258C121.926 76.4674 122.259 74.4883 122.426 72.4883C122.634 70.4883 122.738 68.7799 122.738 67.3633C122.738 66.3216 122.676 64.9674 122.551 63.3008C122.426 61.6341 122.217 59.9466 121.926 58.2383C121.634 56.4883 121.217 54.8633 120.676 53.3633C120.176 51.8633 119.53 50.7383 118.738 49.9883C118.363 50.1133 117.905 50.1758 117.363 50.1758ZM143.988 38.8633C143.988 39.5716 143.822 40.0924 143.488 40.4258C143.197 40.7174 142.634 40.8633 141.801 40.8633C141.426 40.8633 140.842 40.8216 140.051 40.7383C139.259 40.6133 138.447 40.4466 137.613 40.2383C136.822 40.0299 136.113 39.7383 135.488 39.3633C134.905 38.9883 134.613 38.5299 134.613 37.9883C134.613 37.8216 134.676 37.3633 134.801 36.6133C134.926 35.8216 135.072 34.9883 135.238 34.1133C135.447 33.2383 135.613 32.4466 135.738 31.7383C135.905 31.0299 136.03 30.6341 136.113 30.5508V30.6133C136.322 30.2799 136.572 30.0716 136.863 29.9883C137.155 29.9049 137.447 29.8633 137.738 29.8633C138.113 29.8633 138.592 29.9258 139.176 30.0508C139.801 30.1341 140.405 30.2799 140.988 30.4883C141.613 30.6549 142.176 30.8841 142.676 31.1758C143.176 31.4674 143.488 31.7799 143.613 32.1133C143.738 32.4466 143.801 32.9049 143.801 33.4883C143.842 34.0299 143.842 34.5299 143.801 34.9883C143.801 35.1549 143.78 35.3633 143.738 35.6133C143.738 35.8216 143.738 35.9883 143.738 36.1133C143.738 36.3216 143.738 36.5299 143.738 36.7383C143.78 36.9466 143.822 37.1549 143.863 37.3633C143.905 37.5716 143.926 37.8008 143.926 38.0508C143.967 38.3008 143.988 38.5716 143.988 38.8633ZM146.301 88.6758C146.301 89.6341 146.072 90.3216 145.613 90.7383C145.197 91.1133 144.509 91.3008 143.551 91.3008C143.051 91.3008 142.488 91.2383 141.863 91.1133C141.28 90.9883 140.697 90.8216 140.113 90.6133C139.53 90.3633 138.988 90.0716 138.488 89.7383C137.988 89.4049 137.613 89.0299 137.363 88.6133C137.197 88.3633 137.051 87.5924 136.926 86.3008C136.801 85.0091 136.697 83.4049 136.613 81.4883C136.572 79.5716 136.509 77.4258 136.426 75.0508C136.384 72.6758 136.342 70.2799 136.301 67.8633C136.301 65.4466 136.301 63.0924 136.301 60.8008C136.301 58.5091 136.301 56.5091 136.301 54.8008V49.9883C136.301 49.5716 136.301 49.1549 136.301 48.7383C136.342 48.3216 136.426 47.9674 136.551 47.6758C136.717 47.3424 136.947 47.0716 137.238 46.8633C137.572 46.6549 138.03 46.5508 138.613 46.5508C140.447 46.5508 141.78 47.0716 142.613 48.1133C143.488 49.1133 144.03 50.4674 144.238 52.1758C144.447 54.7174 144.592 57.2591 144.676 59.8008C144.801 62.3008 144.905 64.8424 144.988 67.4258C145.072 69.7591 145.134 72.0716 145.176 74.3633C145.259 76.6133 145.405 78.8633 145.613 81.1133C145.655 81.5716 145.697 82.0091 145.738 82.4258C145.78 82.8424 145.842 83.2591 145.926 83.6758C146.009 84.5091 146.092 85.3424 146.176 86.1758C146.259 86.9674 146.301 87.8008 146.301 88.6758ZM179.113 65.8008C179.113 69.4258 178.801 73.0508 178.176 76.6758C177.592 80.2591 176.363 83.6549 174.488 86.8633C173.905 87.8216 173.238 88.7591 172.488 89.6758C171.738 90.5508 170.905 91.3424 169.988 92.0508C169.113 92.8008 168.134 93.3841 167.051 93.8008C166.009 94.2591 164.905 94.4883 163.738 94.4883C161.905 94.4883 160.301 94.0508 158.926 93.1758C157.592 92.3424 156.426 91.2383 155.426 89.8633C154.467 88.4466 153.655 86.8633 152.988 85.1133C152.363 83.3216 151.863 81.5091 151.488 79.6758C151.155 77.8008 150.905 75.9883 150.738 74.2383C150.613 72.4883 150.551 70.9466 150.551 69.6133C150.551 68.1133 150.613 66.4674 150.738 64.6758C150.863 62.8841 151.072 61.0508 151.363 59.1758C151.697 57.3008 152.113 55.4466 152.613 53.6133C153.155 51.7799 153.842 50.0716 154.676 48.4883C155.509 46.8633 156.509 45.4258 157.676 44.1758C158.842 42.8841 160.197 41.8633 161.738 41.1133V41.1758C163.072 40.4674 164.405 40.1133 165.738 40.1133C166.572 40.1133 167.217 40.3008 167.676 40.6758C168.134 41.0091 168.342 41.5924 168.301 42.4258C170.592 42.8424 172.447 43.9466 173.863 45.7383C175.28 47.5299 176.363 49.6133 177.113 51.9883C177.905 54.3633 178.426 56.8008 178.676 59.3008C178.967 61.8008 179.113 63.9674 179.113 65.8008ZM164.988 50.1758C164.28 50.1758 163.613 49.9049 162.988 49.3633C162.197 50.5716 161.53 51.9674 160.988 53.5508C160.447 55.0924 160.009 56.6966 159.676 58.3633C159.384 59.9883 159.176 61.6341 159.051 63.3008C158.926 64.9674 158.863 66.5299 158.863 67.9883C158.863 69.1966 158.926 70.7591 159.051 72.6758C159.176 74.5508 159.405 76.4466 159.738 78.3633C160.113 80.2799 160.613 82.0716 161.238 83.7383C161.905 85.4049 162.759 86.6341 163.801 87.4258C165.092 86.6758 166.155 85.4883 166.988 83.8633C167.863 82.1966 168.551 80.3841 169.051 78.4258C169.551 76.4674 169.884 74.4883 170.051 72.4883C170.259 70.4883 170.363 68.7799 170.363 67.3633C170.363 66.3216 170.301 64.9674 170.176 63.3008C170.051 61.6341 169.842 59.9466 169.551 58.2383C169.259 56.4883 168.842 54.8633 168.301 53.3633C167.801 51.8633 167.155 50.7383 166.363 49.9883C165.988 50.1133 165.53 50.1758 164.988 50.1758Z" fill="white"/>
</g>
<defs>
<filter id="filter0_g_6562_7227" x="0.000781298" y="0.000781298" width="180.412" height="95.7875" filterUnits="userSpaceOnUse" color-interpolation-filters="sRGB">
<feFlood flood-opacity="0" result="BackgroundImageFix"/>
<feBlend mode="normal" in="SourceGraphic" in2="BackgroundImageFix" result="shape"/>
<feTurbulence type="fractalNoise" baseFrequency="0.51020407676696777 0.012303149327635765" numOctaves="3" seed="5880" />
<feDisplacementMap in="shape" scale="2.5999999046325684" xChannelSelector="R" yChannelSelector="G" result="displacedImage" width="100%" height="100%" />
<feMerge result="effect1_texture_6562_7227">
<feMergeNode in="displacedImage"/>
</feMerge>
</filter>
</defs>
</svg>
